name C:\Users\u0101727\Documents\MyRepositories\upper-imu-dc\Results\main_tracking\Case_31\FLX01_orientations_groundFrame.mot
datacolumns 13
datarows 36
range 5.01000000 5.36000000
endheader 
time	radius_imu_[0][0]	radius_imu_[0][1]	radius_imu_[0][2]	radius_imu_[1][0]	radius_imu_[1][1]	radius_imu_[1][2]	radius_imu_[2][0]	radius_imu_[2][1]	radius_imu_[2][2]	radius_imu_x	radius_imu_y	radius_imu_z	
          5.01000000	          0.25655494	         -0.89388003	          0.36763848	         -0.31135450	          0.28365969	          0.90697054	         -0.91500707	         -0.34715367	         -0.20553927	         -1.79365386	          0.37646838	          1.29129664	
          5.02000000	          0.25400953	         -0.88981910	          0.37907931	         -0.30752811	          0.29729244	          0.90390468	         -0.91700906	         -0.34617794	         -0.19812927	         -1.78657643	          0.38880114	          1.29272994	
          5.03000000	          0.25130370	         -0.88574092	          0.39026846	         -0.30384679	          0.31063311	          0.90065765	         -0.91897964	         -0.34492042	         -0.19106629	         -1.77983808	          0.40092316	          1.29434007	
          5.04000000	          0.25720381	         -0.87833099	          0.40296510	         -0.30025587	          0.32371890	          0.89724717	         -0.91852741	         -0.35176803	         -0.18046230	         -1.76927709	          0.41475433	          1.28592817	
          5.05000000	          0.26587799	         -0.86978172	          0.41567854	         -0.29640216	          0.33655191	          0.89380007	         -0.91730837	         -0.36084979	         -0.16832344	         -1.75693956	          0.42868873	          1.27413343	
          5.06000000	          0.26467734	         -0.86522660	          0.42582724	         -0.29173687	          0.34904112	          0.89053910	         -0.91914934	         -0.35993503	         -0.16003522	         -1.74860448	          0.43987596	          1.27393073	
          5.07000000	          0.26512583	         -0.86022402	          0.43557196	         -0.28593724	          0.36127408	          0.88753644	         -0.92084102	         -0.35985508	         -0.15018699	         -1.73842619	          0.45067358	          1.27182860	
          5.08000000	          0.26749508	         -0.85470483	          0.44488879	         -0.27884576	          0.37329206	          0.88481528	         -0.92232935	         -0.36073909	         -0.13847703	         -1.72604090	          0.46105008	          1.26748534	
          5.09000000	          0.27152938	         -0.84878739	          0.45368685	         -0.27050634	          0.38508827	          0.88234536	         -0.92363311	         -0.36230786	         -0.12503959	         -1.71157170	          0.47089814	          1.26118164	
          5.10000000	          0.27665456	         -0.84267185	          0.46191602	         -0.26117497	          0.39664988	          0.88003211	         -0.92479721	         -0.36410580	         -0.11034979	         -1.69553817	          0.48015429	          1.25357681	
          5.11000000	          0.28237734	         -0.83649293	          0.46961965	         -0.25124640	          0.40796606	          0.87774651	         -0.92581763	         -0.36584598	         -0.09496547	         -1.67856948	          0.48885992	          1.24523503	
          5.12000000	          0.28836581	         -0.83030310	          0.47690871	         -0.24114898	          0.41903698	          0.87536003	         -0.92665653	         -0.36742995	         -0.07939081	         -1.66124391	          0.49713433	          1.23652722	
          5.13000000	          0.29439427	         -0.82411042	          0.48391531	         -0.23125272	          0.42987822	          0.87276967	         -0.92728323	         -0.36884512	         -0.06402409	         -1.64402254	          0.50512326	          1.22769800	
          5.14000000	          0.30029908	         -0.81790562	          0.49076558	         -0.22182714	          0.44052112	          0.86990451	         -0.92769240	         -0.37009665	         -0.04914558	         -1.62723170	          0.51296821	          1.21892012	
          5.15000000	          0.30595837	         -0.81166997	          0.49757546	         -0.21305610	          0.45100922	          0.86671666	         -0.92789901	         -0.37119071	         -0.03494119	         -1.61108894	          0.52080141	          1.21031784	
          5.16000000	          0.31127082	         -0.80537672	          0.50445894	         -0.20508647	          0.46139238	          0.86316662	         -0.92792781	         -0.37213628	         -0.02155388	         -1.59576185	          0.52875521	          1.20198965	
          5.17000000	          0.31613862	         -0.79899065	          0.51153721	         -0.19807454	          0.47172043	          0.85921261	         -0.92780540	         -0.37295278	         -0.00913066	         -1.58142270	          0.53697283	          1.19402612	
          5.18000000	          0.32046179	         -0.79246796	          0.51894004	         -0.19220545	          0.48203785	          0.85480792	         -0.92755663	         -0.37367638	          0.00215805	         -1.56827173	          0.54561049	          1.18651590	
          5.19000000	          0.32414295	         -0.78575911	          0.52679594	         -0.18767818	          0.49237998	          0.84990520	         -0.92720453	         -0.37435889	          0.01213166	         -1.55652317	          0.55482663	          1.17954191	
          5.20000000	          0.32710250	         -0.77881463	          0.53521186	         -0.18465949	          0.50277102	          0.84446561	         -0.92677118	         -0.37505876	          0.02064214	         -1.54635716	          0.56475853	          1.17316795	
          5.21000000	          0.32930520	         -0.77159129	          0.54424716	         -0.18322121	          0.51322381	          0.83846963	         -0.92627646	         -0.37583003	          0.02763538	         -1.53784894	          0.57549147	          1.16741297	
          5.22000000	          0.33079034	         -0.76405652	          0.55389112	         -0.18328723	          0.52374024	          0.83192665	         -0.92573406	         -0.37671447	          0.03320641	         -1.53090243	          0.58703053	          1.16222001	
          5.23000000	          0.33169086	         -0.75619127	          0.56405313	         -0.18461513	          0.53431133	          0.82488100	         -0.92514779	         -0.37773823	          0.03762184	         -1.52521911	          0.59928611	          1.15743484	
          5.24000000	          0.33223154	         -0.74799189	          0.57456969	         -0.18682137	          0.54491613	          0.81741311	         -0.92451067	         -0.37891231	          0.04129746	         -1.52031711	          0.61207830	          1.15280568	
          5.25000000	          0.33269875	         -0.73947364	          0.58522669	         -0.18944382	          0.55551982	          0.80963496	         -0.92380874	         -0.38023211	          0.04473204	         -1.51560280	          0.62515959	          1.14801482	
          5.26000000	          0.33338600	         -0.73067528	          0.59579141	         -0.19202569	          0.56607178	          0.80167878	         -0.92302758	         -0.38167574	          0.04841198	         -1.51048132	          0.63825069	          1.14273963	
          5.27000000	          0.33453157	         -0.72166254	          0.60604604	         -0.19419706	          0.57650509	          0.79368091	         -0.92215841	         -0.38320368	          0.05271441	         -1.50447609	          0.65108028	          1.13672593	
          5.28000000	          0.33626406	         -0.71252915	          0.61581547	         -0.19573175	          0.58673898	          0.78576489	         -0.92120332	         -0.38475913	          0.05783466	         -1.49732580	          0.66342056	          1.12985560	
          5.29000000	          0.33858048	         -0.70339101	          0.62498348	         -0.19656361	          0.59668505	          0.77802937	         -0.92017716	         -0.38627456	          0.06376484	         -1.48902224	          0.67511037	          1.12217602	
          5.30000000	          0.34135049	         -0.69437793	          0.63349754	         -0.19676414	          0.60625700	          0.77054287	         -0.91911028	         -0.38767479	          0.07031745	         -1.47979137	          0.68606517	          1.11389788	
          5.31000000	          0.34434208	         -0.68562285	          0.64136560	         -0.19649564	          0.61538289	          0.76334354	         -0.91805119	         -0.38887685	          0.07718032	         -1.47003053	          0.69627684	          1.10536431	
          5.32000000	          0.34726571	         -0.67724629	          0.64864781	         -0.19595682	          0.62401851	          0.75644023	         -0.91706458	         -0.38979272	          0.08398920	         -1.46021709	          0.70580644	          1.09699185	
          5.33000000	          0.34984209	         -0.66933108	          0.65544367	         -0.19533254	          0.63216003	          0.74981257	         -0.91621816	         -0.39034548	          0.09041405	         -1.45079351	          0.71476993	          1.08917433	
          5.34000000	          0.35200822	         -0.66183898	          0.66186054	         -0.19475263	          0.63985305	          0.74341071	         -0.91551167	         -0.39058576	          0.09633865	         -1.44192445	          0.72329801	          1.08198376	
          5.35000000	          0.35420144	         -0.65448989	          0.66797030	         -0.19426530	          0.64720062	          0.73715151	         -0.91476900	         -0.39086358	          0.10209471	         -1.43317288	          0.73147803	          1.07474448	
          5.36000000	          0.35902792	         -0.64607146	          0.67356560	         -0.19380352	          0.65434606	          0.73093873	         -0.91298365	         -0.39296680	          0.10971758	         -1.42180367	          0.73902232	          1.06358035	
